<?xml version="1.0" standalone="no"?>
<!DOCTYPE svg PUBLIC "-//W3C//DTD SVG 20010904//EN"
 "http://www.w3.org/TR/2001/REC-SVG-20010904/DTD/svg10.dtd">
<svg version="1.0" xmlns="http://www.w3.org/2000/svg"
 width="512.000000pt" height="512.000000pt" viewBox="0 0 512.000000 512.000000"
 preserveAspectRatio="xMidYMid meet">
<metadata>
Created by potrace 1.14, written by Peter Selinger 2001-2017
</metadata>
<g transform="translate(0.000000,512.000000) scale(0.100000,-0.100000)"
fill="#000000" stroke="none">
<path d="M555 4966 c-173 -43 -330 -196 -372 -361 -4 -16 -9 -729 -10 -1583
-3 -1716 -7 -1610 60 -1735 37 -70 117 -154 180 -189 25 -14 77 -36 114 -49
l68 -23 720 -2 c396 -1 723 -2 726 -3 3 0 -4 -40 -16 -88 -28 -112 -73 -299
-80 -338 -3 -16 -7 -34 -9 -40 -1 -5 -6 -28 -11 -50 -4 -22 -11 -44 -15 -50
-5 -5 -39 -9 -77 -9 -84 2 -157 -23 -201 -68 -35 -37 -62 -95 -62 -133 0 -14
-3 -26 -7 -26 -5 -1 -123 -2 -264 -3 -192 -1 -260 -5 -272 -14 -16 -14 -17
-36 -1 -52 7 -7 537 -9 1538 -8 1423 3 1530 4 1539 20 9 13 7 21 -5 35 -15 17
-37 18 -270 17 -139 0 -259 1 -265 4 -7 2 -13 15 -13 28 0 36 -27 95 -58 127
-47 50 -97 69 -190 72 -46 2 -87 7 -91 11 -4 5 -25 83 -45 174 -21 91 -39 172
-41 180 -21 91 -45 201 -45 208 0 4 313 8 696 7 480 0 717 3 763 11 61 11 110
30 184 70 47 26 125 111 161 177 70 126 66 18 66 1715 0 1101 -3 1546 -11
1584 -35 164 -147 296 -309 365 l-65 28 -1980 2 c-1553 1 -1991 -1 -2030 -11z"/>
</g>
</svg>
